<svg width="45" height="46" viewBox="0 0 45 46" fill="none" xmlns="http://www.w3.org/2000/svg">
                                    <path d="M44.3848 9.8125H11.7348C11.644 9.81245 11.5543 9.8325 11.4722 9.87122C11.3901 9.90994 11.3176 9.96637 11.2598 10.0364L9.88875 11.7014L8.51766 10.0364C8.45993 9.96637 8.3874 9.90994 8.30528 9.87122C8.22316 9.8325 8.13349 9.81245 8.0427 9.8125H0.615234C0.534411 9.8125 0.45438 9.82843 0.379713 9.85937C0.305047 9.89031 0.237208 9.93566 0.180074 9.99282C0.122939 10.05 0.0776288 10.1179 0.0467311 10.1925C0.0158333 10.2672 -4.60843e-05 10.3473 1.00456e-07 10.4281V34.6859C1.00456e-07 34.8491 0.0648192 35.0056 0.180198 35.1209C0.295577 35.2363 0.452064 35.3011 0.615234 35.3011H8.04059C8.13138 35.3012 8.22105 35.2811 8.30317 35.2424C8.38529 35.2037 8.45782 35.1473 8.51555 35.0772L9.88664 33.4122L11.2577 35.0772C11.3155 35.1473 11.388 35.2037 11.4701 35.2424C11.5522 35.2811 11.6419 35.3012 11.7327 35.3011H44.3848C44.4656 35.3012 44.5456 35.2853 44.6203 35.2544C44.6949 35.2235 44.7628 35.1782 44.8199 35.121C44.877 35.0639 44.9224 34.9961 44.9533 34.9214C44.9842 34.8467 45 34.7667 45 34.6859V10.4281C45.0001 10.3472 44.9842 10.2672 44.9534 10.1925C44.9225 10.1178 44.8772 10.0499 44.82 9.99272C44.7629 9.93554 44.695 9.8902 44.6203 9.85927C44.5457 9.82835 44.4656 9.81245 44.3848 9.8125ZM1.23047 11.043H7.7502L9.41273 13.0602C9.47242 13.1271 9.54556 13.1805 9.62735 13.2172C9.70913 13.2538 9.79773 13.2727 9.88734 13.2727C9.97695 13.2727 10.0656 13.2538 10.1473 13.2172C10.2291 13.1805 10.3023 13.1271 10.362 13.0602L12.0245 11.043H43.7706V29.8104H1.23047V11.043ZM43.7695 34.0703H12.0252L10.3627 32.053C10.303 31.9862 10.2298 31.9327 10.148 31.8961C10.0663 31.8595 9.97766 31.8406 9.88805 31.8406C9.79844 31.8406 9.70984 31.8595 9.62805 31.8961C9.54626 31.9327 9.47313 31.9862 9.41344 32.053L7.7509 34.0703H1.23047V31.0409H43.7695V34.0703Z" fill="white"></path>
                                    <path d="M20.4609 12.6254H13.0612C12.9705 12.6253 12.8809 12.6453 12.7988 12.684C12.7167 12.7228 12.6443 12.7792 12.5866 12.8493L9.8877 16.1238L7.18875 12.8489C7.13111 12.7789 7.05865 12.7224 6.97658 12.6837C6.89452 12.645 6.80488 12.6249 6.71414 12.625H3.42773C3.34688 12.625 3.26682 12.6409 3.19213 12.6719C3.11744 12.7029 3.04959 12.7482 2.99245 12.8054C2.93531 12.8627 2.89001 12.9306 2.85913 13.0053C2.82825 13.08 2.81241 13.1601 2.8125 13.2409V27.6135C2.8125 27.7767 2.87732 27.9332 2.9927 28.0486C3.10808 28.1639 3.26456 28.2288 3.42773 28.2288H20.4609C20.6241 28.2288 20.7806 28.1639 20.896 28.0486C21.0114 27.9332 21.0762 27.7767 21.0762 27.6135V13.2409C21.0762 13.1601 21.0603 13.0801 21.0294 13.0054C20.9985 12.9307 20.9532 12.8628 20.8961 12.8057C20.839 12.7485 20.7711 12.7032 20.6965 12.6722C20.6218 12.6413 20.5418 12.6254 20.4609 12.6254ZM19.8457 26.9983H4.04297V13.8558H6.42375L9.41203 17.4829C9.47172 17.5497 9.54485 17.6032 9.62664 17.6398C9.70843 17.6764 9.79703 17.6954 9.88664 17.6954C9.97625 17.6954 10.0648 17.6764 10.1466 17.6398C10.2284 17.6032 10.3016 17.5497 10.3612 17.4829L13.3495 13.8558H19.8464L19.8457 26.9983Z" fill="white"></path>
                                    <path d="M40.8447 13.5583C40.3333 13.0482 39.6405 12.7617 38.9181 12.7617C38.1958 12.7617 37.503 13.0482 36.9916 13.5583L34.435 16.1148L30.1133 15.1143C29.6047 14.9949 29.074 15.0078 28.5718 15.1516C28.0697 15.2955 27.6127 15.5656 27.2445 15.9362L26.2833 16.8974C26.2124 16.9682 26.1599 17.0553 26.1303 17.151C26.1007 17.2467 26.095 17.3483 26.1136 17.4467C26.1322 17.5452 26.1746 17.6376 26.2371 17.7159C26.2996 17.7943 26.3803 17.8562 26.4721 17.8962L30.7742 19.7774L28.8515 21.6997L25.0898 22.0481C24.947 22.0608 24.8132 22.1229 24.7115 22.2239L22.8482 24.0872C22.7724 24.163 22.7177 24.2573 22.6896 24.3608C22.6614 24.4642 22.6608 24.5733 22.6877 24.677C22.7147 24.7808 22.7683 24.8757 22.8433 24.9524C22.9182 25.0291 23.0119 25.0848 23.1151 25.1141L27.678 26.4117C28.5061 26.647 29.382 26.6571 30.2153 26.4407C31.0486 26.2244 31.809 25.7896 32.4181 25.1813L42.0073 15.592C42.0645 15.535 42.1099 15.4672 42.1408 15.3926C42.1717 15.3179 42.1877 15.2379 42.1877 15.1572C42.1877 15.0764 42.1717 14.9964 42.1408 14.9218C42.1099 14.8471 42.0645 14.7794 42.0073 14.7223L40.8447 13.5583ZM31.548 24.3104C31.0941 24.7642 30.5272 25.0885 29.906 25.2499C29.2848 25.4113 28.6318 25.4039 28.0144 25.2284L24.4587 24.2176L25.4255 23.2508L29.1873 22.9024C29.3302 22.8893 29.4641 22.8265 29.5655 22.7249L32.2828 20.0077C32.3537 19.9369 32.4062 19.8498 32.4358 19.7541C32.4654 19.6583 32.4711 19.5568 32.4525 19.4584C32.4339 19.3599 32.3915 19.2675 32.329 19.1891C32.2665 19.1108 32.1858 19.0489 32.094 19.0089L27.7912 17.1294L28.1146 16.806C28.3357 16.5835 28.6102 16.4214 28.9118 16.3352C29.2134 16.249 29.532 16.2417 29.8373 16.3138L34.4885 17.3903C34.5902 17.4136 34.6961 17.4107 34.7965 17.382C34.8968 17.3533 34.9882 17.2997 35.0622 17.2261L37.86 14.4284C38.1405 14.1487 38.5204 13.9917 38.9166 13.9917C39.3127 13.9917 39.6927 14.1487 39.9732 14.4284L40.7009 15.1565L31.548 24.3104Z" fill="white"></path>
                                    <path d="M17.6484 24.1875H6.24023C6.07706 24.1875 5.92058 24.2523 5.8052 24.3677C5.68982 24.4831 5.625 24.6396 5.625 24.8027C5.625 24.9659 5.68982 25.1224 5.8052 25.2378C5.92058 25.3531 6.07706 25.418 6.24023 25.418H17.6484C17.8116 25.418 17.9681 25.3531 18.0835 25.2378C18.1988 25.1224 18.2637 24.9659 18.2637 24.8027C18.2637 24.6396 18.1988 24.4831 18.0835 24.3677C17.9681 24.2523 17.8116 24.1875 17.6484 24.1875Z" fill="white"></path>
                                    <path d="M17.6484 21.9336H6.24023C6.07706 21.9336 5.92058 21.9984 5.8052 22.1138C5.68982 22.2292 5.625 22.3857 5.625 22.5488C5.625 22.712 5.68982 22.8685 5.8052 22.9839C5.92058 23.0992 6.07706 23.1641 6.24023 23.1641H17.6484C17.8116 23.1641 17.9681 23.0992 18.0835 22.9839C18.1988 22.8685 18.2637 22.712 18.2637 22.5488C18.2637 22.3857 18.1988 22.2292 18.0835 22.1138C17.9681 21.9984 17.8116 21.9336 17.6484 21.9336Z" fill="white"></path>
                                    <path d="M17.6484 19.6797H6.24023C6.07706 19.6797 5.92058 19.7445 5.8052 19.8599C5.68982 19.9753 5.625 20.1318 5.625 20.2949C5.625 20.4581 5.68982 20.6146 5.8052 20.73C5.92058 20.8453 6.07706 20.9102 6.24023 20.9102H17.6484C17.8116 20.9102 17.9681 20.8453 18.0835 20.73C18.1988 20.6146 18.2637 20.4581 18.2637 20.2949C18.2637 20.1318 18.1988 19.9753 18.0835 19.8599C17.9681 19.7445 17.8116 19.6797 17.6484 19.6797Z" fill="white"></path>
                                    <path d="M12.7334 18.0449C12.7334 18.1257 12.7492 18.2058 12.7801 18.2804C12.811 18.3551 12.8564 18.4229 12.9135 18.4801C12.9706 18.5372 13.0385 18.5825 13.1131 18.6134C13.1878 18.6443 13.2678 18.6602 13.3486 18.6602H17.6486C17.8118 18.6602 17.9683 18.5953 18.0836 18.48C18.199 18.3646 18.2638 18.2081 18.2638 18.0449C18.2638 17.8818 18.199 17.7253 18.0836 17.6099C17.9683 17.4945 17.8118 17.4297 17.6486 17.4297H13.3486C13.2678 17.4296 13.1878 17.4455 13.1131 17.4764C13.0385 17.5073 12.9706 17.5526 12.9135 17.6098C12.8564 17.6669 12.811 17.7348 12.7801 17.8094C12.7492 17.8841 12.7334 17.9641 12.7334 18.0449Z" fill="white"></path>
                                </svg>