<svg width="40" height="41" viewBox="0 0 40 41" fill="none" xmlns="http://www.w3.org/2000/svg">
                                    <g clip-path="url(#clip0_5704_8349)">
                                    <path d="M35.3072 24.0042C36.623 20.1266 36.5882 15.9179 35.2084 12.0627C33.8286 8.20739 31.1851 4.93234 27.7077 2.7702C24.2303 0.608062 20.1237 -0.313969 16.0558 0.154076C11.9879 0.622121 8.19801 2.45271 5.30255 5.34809C2.40708 8.24348 0.576392 12.0333 0.108235 16.1012C-0.359922 20.1691 0.561996 24.2757 2.72404 27.7532C4.88608 31.2306 8.16106 33.8743 12.0163 35.2542C15.8715 36.634 20.0802 36.669 23.9579 35.3533C24.556 36.5552 25.4315 37.5975 26.512 38.3943C27.5925 39.1911 28.847 39.7194 30.172 39.9357C31.497 40.1519 32.8544 40.0499 34.1321 39.6381C35.4099 39.2263 36.5714 38.5164 37.5207 37.5671C38.47 36.6179 39.1799 35.4564 39.5918 34.1786C40.0036 32.9009 40.1057 31.5435 39.8894 30.2185C39.6732 28.8935 39.1449 27.639 38.3482 26.5585C37.5514 25.4779 36.5091 24.6024 35.3072 24.0042ZM34.2969 23.5792C32.2171 22.8581 29.9378 22.9783 27.9454 23.9142L28.7469 22.5152C28.7943 22.4324 28.8192 22.3387 28.8191 22.2433V19.6574L30.5185 17.9092C30.6178 17.8072 30.6733 17.6704 30.6732 17.528V15.3033C30.6732 15.1839 30.6341 15.0677 30.5618 14.9727C30.4896 14.8776 30.3882 14.8088 30.2732 14.7767L27.2732 13.9405L26.1638 11.7699C26.1245 11.6931 26.0676 11.6267 25.9978 11.576C25.9279 11.5254 25.8471 11.492 25.7619 11.4786L21.5088 10.8095V10.392L27.25 9.12142L29.3954 11.2652C29.498 11.3677 29.6371 11.4254 29.7822 11.4255H33.776C35.441 15.2738 35.6265 19.6013 34.2969 23.578V23.5792ZM33.2529 10.333H30.0085L27.8125 8.1361C27.7475 8.07117 27.6672 8.02362 27.5791 7.99785C27.4909 7.97207 27.3976 7.96889 27.3079 7.9886L20.8438 9.41892C20.7223 9.44586 20.6136 9.51342 20.5356 9.61045C20.4577 9.70749 20.4152 9.8282 20.415 9.95267V11.277C20.4151 11.4073 20.4617 11.5333 20.5463 11.6323C20.631 11.7313 20.7482 11.7968 20.8769 11.817L25.3166 12.5152L26.4082 14.6514C26.4425 14.7187 26.4905 14.7782 26.549 14.826C26.6076 14.8738 26.6754 14.909 26.7482 14.9292L29.5794 15.7183V17.3058L27.88 19.0539C27.7808 19.156 27.7254 19.2928 27.7254 19.4352V22.0974L25.9197 25.2502C25.189 25.8983 24.5751 26.6672 24.1047 27.5233H22.886V25.7924C22.886 25.7166 22.8702 25.6416 22.8397 25.5722C22.8092 25.5028 22.7646 25.4405 22.7088 25.3892L20.3438 23.2208V20.7064C20.3438 20.5942 20.3092 20.4847 20.2448 20.3927C20.1804 20.3008 20.0893 20.231 19.9838 20.1927L15.0988 18.4164V14.3539L18.2907 10.9074C18.3424 10.8515 18.3819 10.7855 18.4066 10.7136C18.4314 10.6416 18.4408 10.5653 18.4344 10.4894C18.4279 10.4136 18.4058 10.3399 18.3692 10.2732C18.3327 10.2064 18.2826 10.148 18.2222 10.1017L15.3029 7.86235L17.6954 4.48735H22.5775C22.7226 4.48728 22.8616 4.42962 22.9641 4.32704L24.7947 2.49673C28.4343 4.05395 31.4228 6.82271 33.2529 10.333ZM7.13348 5.18173L8.50661 8.01017L7.40098 8.56329C7.34664 8.59043 7.29721 8.62644 7.25473 8.66985L4.65911 11.3183C4.58737 11.3915 4.53762 11.4833 4.51553 11.5834C4.49343 11.6834 4.49986 11.7877 4.53411 11.8842L4.90629 12.9305C4.47964 13.1934 4.09324 13.5166 3.75911 13.8902L1.55379 14.2614C2.39627 10.7166 4.35163 7.53472 7.13348 5.18173ZM1.09786 18.3399H2.88942L7.40973 20.0402L9.72223 23.9552V25.522L9.04473 26.5508C8.9705 26.6633 8.94045 26.7992 8.96035 26.9325C8.98025 27.0658 9.04869 27.1871 9.15254 27.273L9.32442 27.4149L7.68411 28.3955C7.603 28.4439 7.53583 28.5126 7.48917 28.5947C7.44251 28.6769 7.41794 28.7697 7.41786 28.8642V31.4152C5.46482 29.8372 3.88528 27.8464 2.79259 25.5858C1.6999 23.3251 1.12115 20.8506 1.09786 18.3399ZM18.1344 35.2214C14.6971 35.2245 11.3402 34.1819 8.50942 32.232C8.50942 32.2252 8.51129 32.2186 8.51129 32.2117V29.1752L10.5494 27.9564C10.6247 27.9116 10.688 27.8493 10.7341 27.7748C10.7803 27.7004 10.8078 27.6159 10.8145 27.5286C10.8212 27.4413 10.8068 27.3536 10.7725 27.273C10.7382 27.1924 10.6851 27.1212 10.6175 27.0655L10.2275 26.7427L10.7254 25.987C10.7844 25.8978 10.8158 25.7931 10.8157 25.6861V23.8055C10.8158 23.7077 10.7896 23.6118 10.7397 23.5277L8.25348 19.3183C8.19006 19.2109 8.09181 19.1284 7.97504 19.0845L3.18129 17.2811C3.11975 17.258 3.05454 17.2461 2.98879 17.2461H1.12036C1.15471 16.6306 1.2222 16.0174 1.32254 15.4092L4.13505 14.9361C4.26493 14.9142 4.38255 14.8462 4.46629 14.7445C4.83727 14.2954 5.2989 13.9298 5.82098 13.6714C5.94048 13.6117 6.034 13.5104 6.08391 13.3865C6.13382 13.2626 6.13667 13.1248 6.09192 12.9989L5.67942 11.8389L7.97192 9.49985L9.47911 8.7461C9.60784 8.68169 9.70601 8.56914 9.75234 8.43285C9.79867 8.29656 9.78942 8.1475 9.72661 8.01798L8.01036 4.48392C10.2286 2.83877 12.8144 1.75913 15.5438 1.33849C18.2733 0.917848 21.0641 1.16888 23.6747 2.06985L22.351 3.3936H17.4125C17.3252 3.39364 17.239 3.4146 17.1614 3.45472C17.0838 3.49484 17.0169 3.55296 16.9663 3.62423L14.106 7.65954C14.0242 7.77496 13.9904 7.91756 14.0115 8.0574C14.0327 8.19725 14.1072 8.32346 14.2194 8.40954L17.0804 10.6039L14.151 13.7652C14.0572 13.8663 14.0051 13.9991 14.005 14.137V18.7995C14.005 18.9118 14.0396 19.0213 14.104 19.1132C14.1684 19.2051 14.2596 19.275 14.365 19.3133L19.25 21.0895V23.4614C19.2501 23.5372 19.2658 23.6122 19.2963 23.6816C19.3268 23.751 19.3714 23.8133 19.4272 23.8645L21.7925 26.0327V28.0702C21.7925 28.2152 21.8502 28.3543 21.9527 28.4569C22.0553 28.5594 22.1944 28.617 22.3394 28.617H23.6041C22.9139 30.4593 22.8888 32.4848 23.5332 34.3436C21.7928 34.9257 19.9696 35.2221 18.1344 35.2214ZM31.5338 38.9527C30.0756 38.9527 28.6501 38.5204 27.4376 37.7103C26.2251 36.9001 25.28 35.7487 24.722 34.4015C24.1639 33.0542 24.0178 31.5718 24.3023 30.1416C24.5868 28.7114 25.289 27.3976 26.3201 26.3665C27.3512 25.3354 28.665 24.6332 30.0952 24.3487C31.5254 24.0642 33.0079 24.2103 34.3551 24.7683C35.7023 25.3264 36.8538 26.2714 37.6639 27.4839C38.474 28.6964 38.9064 30.1219 38.9063 31.5802C38.9041 33.5348 38.1266 35.4087 36.7445 36.7908C35.3623 38.173 33.4884 38.9504 31.5338 38.9527Z" fill="white"></path>
                                    <path d="M37.3885 28.4909L36.6932 27.7953C36.354 27.4562 35.894 27.2656 35.4144 27.2656C34.9348 27.2656 34.4748 27.4562 34.1357 27.7953L32.6769 29.2537L30.1894 28.6778C29.8556 28.5994 29.5073 28.6079 29.1778 28.7023C28.8482 28.7967 28.5482 28.974 28.3066 29.2172L27.7319 29.7922C27.6689 29.8551 27.6222 29.9325 27.5958 30.0175C27.5695 30.1026 27.5644 30.1928 27.5809 30.2804C27.5974 30.3679 27.6351 30.45 27.6906 30.5197C27.7461 30.5893 27.8178 30.6444 27.8994 30.68L30.2322 31.6987L29.3135 32.6172L27.1288 32.8197C27.0019 32.8309 26.883 32.8862 26.7925 32.9759L25.6775 34.0906C25.6102 34.158 25.5617 34.2419 25.5367 34.3338C25.5117 34.4257 25.5112 34.5226 25.5352 34.6148C25.5591 34.707 25.6067 34.7914 25.6733 34.8595C25.7399 34.9277 25.8231 34.9773 25.9147 35.0034L28.6435 35.7797C29.1694 35.9292 29.7256 35.9357 30.2548 35.7983C30.7841 35.661 31.267 35.3849 31.6538 34.9984L37.3885 29.2637C37.4393 29.213 37.4796 29.1527 37.5071 29.0864C37.5346 29.0201 37.5488 28.949 37.5488 28.8772C37.5488 28.8054 37.5346 28.7343 37.5071 28.6679C37.4796 28.6016 37.4393 28.5417 37.3885 28.4909ZM30.8803 34.2253C30.6315 34.4741 30.3207 34.652 29.98 34.7405C29.6394 34.829 29.2814 34.8249 28.9428 34.7287L27.1097 34.2075L27.4266 33.8906L29.6113 33.6878C29.7382 33.6766 29.8572 33.6213 29.9475 33.5315L31.5725 31.9065C31.6355 31.8436 31.6821 31.7662 31.7084 31.6812C31.7346 31.5961 31.7397 31.5059 31.7232 31.4184C31.7066 31.331 31.669 31.2489 31.6135 31.1793C31.558 31.1096 31.4863 31.0547 31.4047 31.019L29.0722 30L29.0803 29.9919C29.1909 29.8804 29.3283 29.7991 29.4792 29.7559C29.6302 29.7127 29.7897 29.7089 29.9425 29.745L32.726 30.3894C32.8163 30.4103 32.9106 30.4079 32.9998 30.3823C33.0889 30.3567 33.1701 30.3088 33.2357 30.2431L34.9091 28.5703C35.0451 28.4401 35.2261 28.3674 35.4144 28.3674C35.6027 28.3674 35.7837 28.4401 35.9197 28.5703L36.2285 28.879L30.8803 34.2253Z" fill="white"></path>
                                    </g>
                                    <defs>
                                    <clipPath id="clip0_5704_8349">
                                        <rect width="40" height="40" fill="white" transform="translate(0 0.046875)"></rect>
                                    </clipPath>
                                    </defs>
                                </svg>